<svg xmlns="http://www.w3.org/2000/svg" width="120" height="107.324" viewBox="0 0 120 107.324">
  <g id="Group_579" data-name="Group 579" transform="translate(-146 -435)">
    <g id="_7088619_database_finding_chart_data_searching_icon" data-name="7088619_database_finding_chart_data_searching_icon" transform="translate(112.998 378.36)">
      <path id="Path_20" data-name="Path 20" d="M184.674,115.168a32.744,32.744,0,0,0-55.759,22.992,32.2,32.2,0,0,0,32.3,32.527,32.842,32.842,0,0,0,32.8-32.516A32.059,32.059,0,0,0,184.674,115.168Zm-2.536,43.825a29.538,29.538,0,0,1-41.712,0,29,29,0,0,1-8.458-20.825,29.776,29.776,0,0,1,29.754-29.461,29.146,29.146,0,0,1,29.235,29.437,29.539,29.539,0,0,1-8.819,20.841Z" transform="translate(-70.093 -35.818)" fill="#e8ebf1"/>
      <path id="Path_22" data-name="Path 22" d="M150.5,149.341,126.93,125.775a42.514,42.514,0,0,0-5.335-53.608c-.307-.31-.643-.573-.958-.872L132.211,59.7h17.466a1.532,1.532,0,1,0,0-3.063H131.592a1.529,1.529,0,0,0-1.077.45L118.364,69.241A42.706,42.706,0,0,0,61.151,132.5c.829.829,1.691,1.615,2.571,2.358L52.069,146.517H34.6a1.532,1.532,0,1,0,0,3.061H52.7a1.542,1.542,0,0,0,1.077-.447L66.14,136.764a42.469,42.469,0,0,0,48.666,1.131l23.574,23.56a8.566,8.566,0,1,0,12.114-12.114Zm-2.17,9.96a5.635,5.635,0,0,1-7.777,0l-24.467-24.47a1.537,1.537,0,0,0-1.077-.45,1.5,1.5,0,0,0-.88.283,39.647,39.647,0,1,1,9.578-9.581,1.532,1.532,0,0,0,.17,1.968l24.462,24.465A5.51,5.51,0,0,1,148.326,159.3Z" transform="translate(0)" fill="#e8ebf1"/>
      <path id="Path_23" data-name="Path 23" d="M427.739,90.636H415.068a1.532,1.532,0,1,0,0,3.061h12.671a1.532,1.532,0,0,0,0-3.061Z" transform="translate(-278.048 -24.844)" fill="#e8ebf1"/>
      <path id="Path_24" data-name="Path 24" d="M34.772,359.573H47.443a1.532,1.532,0,0,0,0-3.063H34.772a1.532,1.532,0,0,0,0,3.063Z" transform="translate(-0.174 -219.146)" fill="#e8ebf1"/>
    </g>
    <g id="icons" transform="translate(190.987 468.74)">
      <path id="email" d="M21.688,3H4.338A4.35,4.35,0,0,0,0,7.338V18.181a4.35,4.35,0,0,0,4.338,4.338h17.35a4.35,4.35,0,0,0,4.338-4.338V7.338A4.35,4.35,0,0,0,21.688,3Zm1.735,6.289-8.567,5.747a3.656,3.656,0,0,1-1.843.542,3.656,3.656,0,0,1-1.843-.542L2.6,9.289a1.147,1.147,0,0,1-.217-1.518A1.147,1.147,0,0,1,3.9,7.554L12.47,13.3a1.175,1.175,0,0,0,1.193,0L22.23,7.554a1.067,1.067,0,0,1,1.518.325A1.183,1.183,0,0,1,23.423,9.289Z" fill="#7eafe8"/>
    </g>
  </g>
</svg>
